<svg width="50" height="50" viewBox="0 0 50 50" fill="none" xmlns="http://www.w3.org/2000/svg">
<g clip-path="url(#clip0_1_81)">
<path d="M50 9.76626H42.3054L49.9974 2.07427L47.9258 0.00268555L38.1622 9.76626H0V40.2337H7.69463L0.00263672 47.9258L2.07422 49.9974L11.8378 40.2338H50V9.76626ZM2.92969 37.3041V12.6959H35.2325L32.3028 15.6256H5.85977V34.3744H13.5541L10.6244 37.3041L2.92969 37.3041ZM28.3999 19.5286L19.5285 28.4C18.9125 27.4123 18.5553 26.2473 18.5553 25C18.5553 21.4464 21.4463 18.5553 25 18.5553C26.2473 18.5553 27.4122 18.9126 28.3999 19.5286ZM17.4198 30.5086L16.4837 31.4448H8.78936V18.5553H18.1986C16.6048 20.2366 15.6256 22.506 15.6256 25C15.6256 27.0571 16.2922 28.9612 17.4198 30.5086ZM21.6001 30.4715L30.4715 21.6001C31.0875 22.5878 31.4447 23.7528 31.4447 25C31.4447 28.5537 28.5537 31.4448 25 31.4448C23.7527 31.4448 22.5878 31.0875 21.6001 30.4715ZM32.5802 19.4915L33.5163 18.5553H41.2106V31.4447H31.8014C33.3952 29.7634 34.3744 27.494 34.3744 25C34.3744 22.943 33.7078 21.0389 32.5802 19.4915ZM47.0703 37.3041H14.7675L17.6972 34.3745H44.1402V15.6256H36.4459L39.3756 12.6959H47.0703V37.3041Z" fill="#929396"/>
</g>
<defs>
<clipPath id="clip0_1_81">
<rect width="50" height="50" fill="white"/>
</clipPath>
</defs>
</svg>
