<svg width="40" height="41" viewBox="0 0 40 41" fill="none" xmlns="http://www.w3.org/2000/svg">
<rect width="40" height="40.624" rx="20" fill="white"/>
<g clip-path="url(#clip0_1_414)">
<path d="M26.6391 14.239C28.8049 17.4233 29.8745 21.0151 29.4747 25.1501C29.473 25.1676 29.4639 25.1837 29.4495 25.1942C27.8094 26.3985 26.2204 27.1294 24.6536 27.6141C24.6414 27.6178 24.6284 27.6176 24.6163 27.6135C24.6042 27.6094 24.5937 27.6017 24.5863 27.5913C24.2243 27.0877 23.8954 26.5567 23.6073 25.9992C23.5907 25.9663 23.6058 25.9268 23.6399 25.9138C24.1622 25.717 24.6589 25.4811 25.1366 25.2019C25.1743 25.1798 25.1767 25.1259 25.1419 25.1C25.0405 25.0247 24.9401 24.9456 24.8439 24.8665C24.826 24.8519 24.8018 24.849 24.7814 24.8589C21.6798 26.2911 18.2821 26.2911 15.1438 24.8589C15.1234 24.8497 15.0992 24.8529 15.0817 24.8672C14.9859 24.9463 14.8852 25.0247 14.7847 25.1C14.75 25.1259 14.7529 25.1798 14.7907 25.2019C15.2685 25.4759 15.7652 25.717 16.2868 25.9148C16.3206 25.9277 16.3366 25.9663 16.3198 25.9992C16.0379 26.5574 15.7091 27.0884 15.3404 27.592C15.3243 27.6124 15.298 27.6218 15.273 27.6141C13.7137 27.1294 12.1247 26.3985 10.4846 25.1942C10.4709 25.1837 10.4611 25.1669 10.4596 25.1494C10.1255 21.5727 10.8065 17.9511 13.2925 14.2382C13.2985 14.2284 13.3076 14.2207 13.3182 14.2162C14.5414 13.6548 15.8519 13.2418 17.2216 13.0059C17.2466 13.0021 17.2715 13.0136 17.2844 13.0356C17.4537 13.3353 17.6471 13.7195 17.778 14.0335C19.2218 13.813 20.6881 13.813 22.1621 14.0335C22.2929 13.7262 22.4797 13.3353 22.6482 13.0356C22.6542 13.0247 22.6635 13.0159 22.6748 13.0106C22.6861 13.0052 22.6987 13.0036 22.711 13.0059C24.0814 13.2425 25.3919 13.6555 26.6142 14.2162C26.625 14.2207 26.6339 14.2284 26.6391 14.239ZM18.512 21.0395C18.5271 19.9822 17.7562 19.1072 16.7885 19.1072C15.8287 19.1072 15.0652 19.9745 15.0652 21.0395C15.0652 22.1043 15.8438 22.9716 16.7885 22.9716C17.7485 22.9716 18.512 22.1043 18.512 21.0395ZM24.884 21.0395C24.8991 19.9822 24.1282 19.1072 23.1607 19.1072C22.2007 19.1072 21.4372 19.9745 21.4372 21.0395C21.4372 22.1043 22.2158 22.9716 23.1607 22.9716C24.1282 22.9716 24.884 22.1043 24.884 21.0395Z" fill="#2A2B2F"/>
</g>
<defs>
<clipPath id="clip0_1_414">
<rect width="20" height="14.624" fill="white" transform="translate(10 13)"/>
</clipPath>
</defs>
</svg>
