<svg width="40" height="41" viewBox="0 0 40 41" fill="none" xmlns="http://www.w3.org/2000/svg">
<rect y="0.624023" width="40" height="40" rx="20" fill="white"/>
<g clip-path="url(#clip0_1_421)">
<path d="M17.334 20.624C17.334 19.1513 18.5276 17.9571 20.0003 17.9571C21.4731 17.9571 22.6673 19.1513 22.6673 20.624C22.6673 22.0967 21.4731 23.2909 20.0003 23.2909C18.5276 23.2909 17.334 22.0967 17.334 20.624ZM15.8923 20.624C15.8923 22.8928 17.7314 24.7319 20.0003 24.7319C22.2692 24.7319 24.1084 22.8928 24.1084 20.624C24.1084 18.3552 22.2692 16.5161 20.0003 16.5161C17.7314 16.5161 15.8923 18.3552 15.8923 20.624ZM23.311 16.3532C23.3108 16.8834 23.7404 17.3134 24.2706 17.3136C24.8008 17.3138 25.2308 16.8842 25.2311 16.354C25.2313 15.8238 24.8016 15.3938 24.2714 15.3936C23.7414 15.3939 23.3114 15.8233 23.311 16.3532ZM16.7682 27.1358C15.9882 27.1003 15.5642 26.9704 15.2825 26.8606C14.909 26.7152 14.6425 26.542 14.3623 26.2622C14.0821 25.9824 13.9086 25.7162 13.7638 25.3427C13.654 25.0611 13.5241 24.637 13.4886 23.857C13.4498 23.0138 13.4421 22.7605 13.4421 20.6241C13.4421 18.4877 13.4505 18.2351 13.4886 17.3911C13.5242 16.6112 13.655 16.1879 13.7638 15.9055C13.9093 15.532 14.0825 15.2655 14.3623 14.9853C14.6421 14.7051 14.9083 14.5317 15.2825 14.3869C15.5641 14.2771 15.9882 14.1472 16.7682 14.1117C17.6115 14.0729 17.8648 14.0652 20.0003 14.0652C22.1358 14.0652 22.3894 14.0736 23.2334 14.1117C24.0134 14.1472 24.4367 14.2781 24.7191 14.3869C25.0926 14.5317 25.3591 14.7055 25.6393 14.9853C25.9195 15.2651 26.0923 15.532 26.2378 15.9055C26.3476 16.1871 26.4775 16.6112 26.513 17.3911C26.5518 18.2351 26.5595 18.4877 26.5595 20.6241C26.5595 22.7605 26.5518 23.0131 26.513 23.857C26.4774 24.637 26.3469 25.061 26.2378 25.3427C26.0923 25.7162 25.9191 25.9827 25.6393 26.2622C25.3595 26.5418 25.0926 26.7152 24.7191 26.8606C24.4375 26.9705 24.0134 27.1004 23.2334 27.1358C22.3901 27.1746 22.1368 27.1824 20.0003 27.1824C17.8639 27.1824 17.6112 27.1746 16.7682 27.1358ZM16.7019 12.6725C15.8503 12.7113 15.2683 12.8463 14.76 13.0441C14.2337 13.2483 13.7881 13.5223 13.3428 13.9668C12.8976 14.4114 12.6243 14.8576 12.42 15.384C12.2223 15.8925 12.0872 16.4741 12.0484 17.3258C12.009 18.1788 12 18.4515 12 20.624C12 22.7966 12.009 23.0693 12.0484 23.9223C12.0872 24.774 12.2223 25.3555 12.42 25.8641C12.6243 26.3901 12.8976 26.8369 13.3428 27.2812C13.788 27.7256 14.2337 27.9992 14.76 28.204C15.2693 28.4018 15.8503 28.5368 16.7019 28.5756C17.5554 28.6144 17.8277 28.624 20.0003 28.624C22.173 28.624 22.4457 28.615 23.2987 28.5756C24.1504 28.5368 24.732 28.4018 25.2406 28.204C25.7666 27.9992 26.2125 27.7258 26.6578 27.2812C27.1031 26.8367 27.3758 26.3901 27.5806 25.8641C27.7784 25.3555 27.914 24.7739 27.9522 23.9223C27.991 23.0686 28 22.7966 28 20.624C28 18.4515 27.991 18.1788 27.9522 17.3258C27.9134 16.4741 27.7784 15.8922 27.5806 15.384C27.3758 14.8579 27.1024 14.4121 26.6578 13.9668C26.2132 13.5216 25.7666 13.2483 25.2412 13.0441C24.732 12.8463 24.1504 12.7106 23.2993 12.6725C22.4463 12.6337 22.1736 12.624 20.001 12.624C17.8283 12.624 17.5554 12.633 16.7019 12.6725Z" fill="#2A2B2F"/>
</g>
<defs>
<clipPath id="clip0_1_421">
<rect width="16" height="16" fill="white" transform="translate(12 12.624)"/>
</clipPath>
</defs>
</svg>
