<svg width="409" height="409" viewBox="0 0 409 409" fill="none" xmlns="http://www.w3.org/2000/svg">
<g opacity="0.2" clip-path="url(#clip0_2048_2493)">
<path opacity="0.29" d="M407.55 204.02C407.173 257.751 385.565 309.153 347.437 347.014C309.31 384.875 257.757 406.123 204.025 406.123C150.293 406.123 98.7403 384.875 60.6129 347.014C22.4854 309.153 0.876603 257.751 0.499969 204.02C0.876603 150.289 22.4854 98.8868 60.6129 61.0257C98.7403 23.1646 150.293 1.91663 204.025 1.91663C257.757 1.91663 309.31 23.1646 347.437 61.0257C385.565 98.8868 407.173 150.289 407.55 204.02Z" stroke="#D4B038" stroke-miterlimit="10"/>
<path opacity="0.53" d="M369.27 204.02C368.931 247.623 351.372 289.325 320.419 320.038C289.467 350.75 247.63 367.984 204.025 367.984C160.421 367.984 118.584 350.75 87.6313 320.038C56.6787 289.325 39.1196 247.623 38.7804 204.02C38.6107 182.212 42.7596 160.585 50.9879 140.388C59.2162 120.191 71.3611 101.822 86.7224 86.3405C102.084 70.8592 120.357 58.5718 140.49 50.1867C160.623 41.8015 182.216 37.4845 204.025 37.4845C225.834 37.4845 247.428 41.8015 267.561 50.1867C287.693 58.5718 305.967 70.8592 321.328 86.3405C336.69 101.822 348.835 120.191 357.063 140.388C365.291 160.585 369.44 182.212 369.27 204.02Z" stroke="#D4B038" stroke-miterlimit="10"/>
<path opacity="0.76" d="M330.99 204.02C331.007 220.695 327.73 237.209 321.348 252.614C314.966 268.019 305.604 282.012 293.801 293.79C269.986 317.59 237.695 330.96 204.026 330.96C170.357 330.96 138.065 317.59 114.251 293.79C102.449 282.011 93.0881 268.017 86.7062 252.612C80.3243 237.208 77.0464 220.694 77.0606 204.02C77.0606 170.337 90.4408 138.034 114.258 114.217C138.075 90.4002 170.378 77.0199 204.061 77.0199C237.743 77.0199 270.046 90.4002 293.863 114.217C317.68 138.034 331.061 170.337 331.061 204.02H330.99Z" stroke="#D4B038" stroke-miterlimit="10"/>
<path d="M204.02 292.7C252.997 292.7 292.7 252.997 292.7 204.02C292.7 155.043 252.997 115.34 204.02 115.34C155.043 115.34 115.34 155.043 115.34 204.02C115.34 252.997 155.043 292.7 204.02 292.7Z" stroke="#D4B038" stroke-miterlimit="10"/>
</g>
<path d="M203.5 257C233.6 257 258 232.6 258 202.5C258 172.4 233.6 148 203.5 148C173.4 148 149 172.4 149 202.5C149 232.6 173.4 257 203.5 257Z" fill="#D4B038"/>
<g clip-path="url(#clip1_2048_2493)">
<path d="M203.826 190.102H189.256C188.258 190.102 188 189.758 188 188.812V183.032C188 182.31 188.206 182 188.998 182H218.621C219.412 182 219.636 182.31 219.619 183.032V188.709C219.619 189.758 219.361 190.12 218.242 190.102H203.775" fill="#2A2B2F"/>
<path d="M207.87 206.669H197.548C196.378 206.669 196.103 207.013 196.12 208.132V221.223C196.12 222.221 195.793 222.513 194.847 222.479H189.17C188.345 222.479 187.983 222.272 188.001 221.361V207.444C188.035 206.94 188.234 206.463 188.568 206.085C190.787 203.779 193.041 201.543 195.312 199.324C195.664 198.974 196.125 198.755 196.619 198.705H218.535C219.378 198.705 219.602 199.014 219.585 199.806V205.586C219.585 206.515 219.309 206.807 218.381 206.807H207.784L207.87 206.669Z" fill="#2A2B2F"/>
</g>
<defs>
<clipPath id="clip0_2048_2493">
<rect width="408.04" height="408.04" fill="white"/>
</clipPath>
<clipPath id="clip1_2048_2493">
<rect width="31.6195" height="40.4812" fill="white" transform="translate(188 182)"/>
</clipPath>
</defs>
</svg>
