<svg width="44" height="50" viewBox="0 0 44 50" fill="none" xmlns="http://www.w3.org/2000/svg">
<path d="M32.2539 22.0703H29.3242V20.5078C29.3242 16.4692 26.0386 13.1836 22 13.1836C17.9614 13.1836 14.6758 16.4692 14.6758 20.5078V22.0703H11.7461V33.7891H32.2539V22.0703ZM17.6055 20.5078C17.6055 18.0847 19.5769 16.1133 22 16.1133C24.4231 16.1133 26.3945 18.0847 26.3945 20.5078V22.0703H17.6055V20.5078ZM29.3242 30.8594H14.6758V25H20.5352V27.9297H23.4648V25H29.3242V30.8594Z" fill="#929396"/>
<path d="M0.0273438 36.8164C0.0273438 39.2396 1.99873 41.2109 4.42188 41.2109C5.60449 41.2109 6.67871 40.7405 7.46953 39.9779L17.6401 45.0633C17.6182 45.2411 17.6055 45.4218 17.6055 45.6055C17.6055 48.0286 19.5769 50 22 50C24.4231 50 26.3945 48.0286 26.3945 45.6055C26.3945 45.4218 26.3818 45.2411 26.3599 45.0633L36.5305 39.978C37.3213 40.7405 38.3954 41.2109 39.5781 41.2109C42.0013 41.2109 43.9727 39.2396 43.9727 36.8164C43.9727 34.9067 42.7479 33.2785 41.043 32.6738V17.3262C42.7479 16.7215 43.9727 15.0933 43.9727 13.1836C43.9727 10.7604 42.0013 8.78906 39.5781 8.78906C38.3954 8.78906 37.3213 9.25947 36.5305 10.022L26.3599 4.93672C26.3818 4.75889 26.3945 4.57822 26.3945 4.39453C26.3945 1.97139 24.4231 0 22 0C19.5769 0 17.6055 1.97139 17.6055 4.39453C17.6055 4.57822 17.6182 4.75889 17.6401 4.93672L7.46953 10.0221C6.67871 9.25947 5.60449 8.78906 4.42188 8.78906C1.99873 8.78906 0.0273438 10.7604 0.0273438 13.1836C0.0273438 15.0933 1.25205 16.7215 2.95703 17.3262V32.6738C1.25205 33.2785 0.0273438 34.9067 0.0273438 36.8164ZM4.42188 38.2812C3.61416 38.2812 2.95703 37.6241 2.95703 36.8164C2.95703 36.0087 3.61416 35.3516 4.42188 35.3516C5.22959 35.3516 5.88672 36.0087 5.88672 36.8164C5.88672 37.6241 5.22959 38.2812 4.42188 38.2812ZM8.81641 13.1836C8.81641 12.9999 8.80371 12.8192 8.78174 12.6414L18.9523 7.55605C19.7432 8.31865 20.8174 8.78906 22 8.78906C23.1827 8.78906 24.2568 8.31865 25.0477 7.55615L35.2183 12.6414C35.1963 12.8192 35.1836 12.9999 35.1836 13.1836C35.1836 15.0933 36.4083 16.7215 38.1133 17.3262V32.6738C36.4083 33.2785 35.1836 34.9067 35.1836 36.8164C35.1836 37.0001 35.1963 37.1808 35.2183 37.3586L25.0477 42.4438C24.2568 41.6813 23.1827 41.2109 22 41.2109C20.8174 41.2109 19.7432 41.6813 18.9523 42.4439L8.78174 37.3586C8.80371 37.1808 8.81641 37.0001 8.81641 36.8164C8.81641 34.9067 7.5917 33.2785 5.88672 32.6738V17.3262C7.5917 16.7215 8.81641 15.0933 8.81641 13.1836ZM22 47.0703C21.1923 47.0703 20.5352 46.4132 20.5352 45.6055C20.5352 44.7978 21.1923 44.1406 22 44.1406C22.8077 44.1406 23.4648 44.7978 23.4648 45.6055C23.4648 46.4132 22.8077 47.0703 22 47.0703ZM39.5781 38.2812C38.7704 38.2812 38.1133 37.6241 38.1133 36.8164C38.1133 36.0087 38.7704 35.3516 39.5781 35.3516C40.3858 35.3516 41.043 36.0087 41.043 36.8164C41.043 37.6241 40.3858 38.2812 39.5781 38.2812ZM39.5781 11.7188C40.3858 11.7188 41.043 12.3759 41.043 13.1836C41.043 13.9913 40.3858 14.6484 39.5781 14.6484C38.7704 14.6484 38.1133 13.9913 38.1133 13.1836C38.1133 12.3759 38.7704 11.7188 39.5781 11.7188ZM22 2.92969C22.8077 2.92969 23.4648 3.58682 23.4648 4.39453C23.4648 5.20225 22.8077 5.85938 22 5.85938C21.1923 5.85938 20.5352 5.20225 20.5352 4.39453C20.5352 3.58682 21.1923 2.92969 22 2.92969ZM4.42188 11.7188C5.22959 11.7188 5.88672 12.3759 5.88672 13.1836C5.88672 13.9913 5.22959 14.6484 4.42188 14.6484C3.61416 14.6484 2.95703 13.9913 2.95703 13.1836C2.95703 12.3759 3.61416 11.7188 4.42188 11.7188Z" fill="#929396"/>
</svg>
