<svg width="156" height="156" viewBox="0 0 156 156" fill="none" xmlns="http://www.w3.org/2000/svg">
<g clip-path="url(#clip0_2043_60)">
<path d="M103 54.6609H64.5061V82.4261L53 86.2616L57.4253 90.6869L53.6444 94.4972L59.8416 100.695L63.652 96.9134L68.0773 101.339L72.8898 86.902H103V54.6609H103ZM66.7966 95.913L63.6601 92.7764L59.8497 96.5575L57.7815 94.4892L61.5625 90.6789L58.426 87.5424L70.9818 83.3571L66.7966 95.913ZM100.069 83.971H73.8668L75.6163 78.7228L67.4371 81.4492V57.5919H100.069V83.971Z" fill="#929396"/>
<path d="M88.9904 67.4212L86.9178 65.3486L82.0921 70.1743L80.1973 68.2796L78.1248 70.3522L82.0921 74.3195L88.9904 67.4212Z" fill="#929396"/>
</g>
<circle opacity="0.1" cx="78" cy="78" r="77.5" stroke="#D4B038"/>
<circle cx="20" cy="25" r="17" fill="#D4B038"/>
<path d="M23.462 29H16.7V27.698C20.326 24.954 21.754 23.75 21.754 22.392C21.754 21.412 20.9 20.978 20.046 20.978C18.954 20.978 18.128 21.412 17.526 22.084L16.574 21.02C17.4 20.012 18.716 19.522 20.032 19.522C21.838 19.522 23.406 20.53 23.406 22.392C23.406 24.128 21.824 25.668 19.332 27.558H23.462V29Z" fill="#2A2B2F"/>
<defs>
<clipPath id="clip0_2043_60">
<rect width="50" height="50" fill="white" transform="translate(53 53)"/>
</clipPath>
</defs>
</svg>
