<svg width="156" height="156" viewBox="0 0 156 156" fill="none" xmlns="http://www.w3.org/2000/svg">
<g clip-path="url(#clip0_2043_59)">
<path d="M53 88.8398V103H103V88.8398H53ZM55.9297 91.7695H90.1582V100.07H55.9297V91.7695ZM100.07 100.07H93.0879V91.7695H100.07V100.07Z" fill="#929396"/>
<path d="M60.7637 94.4551H63.6934V97.3848H60.7637V94.4551Z" fill="#929396"/>
<path d="M66.1836 94.4551H69.1133V97.3848H66.1836V94.4551Z" fill="#929396"/>
<path d="M71.6035 94.4551H74.5332V97.3848H71.6035V94.4551Z" fill="#929396"/>
<path d="M77.0234 94.4551H79.9531V97.3848H77.0234V94.4551Z" fill="#929396"/>
<path d="M82.4434 94.4551H85.373V97.3848H82.4434V94.4551Z" fill="#929396"/>
<path d="M78 84.8359C86.7772 84.8359 93.918 77.6952 93.918 68.918C93.918 60.1407 86.7772 53 78 53C69.2228 53 62.082 60.1407 62.082 68.918C62.082 77.6952 69.2228 84.8359 78 84.8359ZM74.0724 66.0096C74.0724 63.8437 75.834 62.082 78 62.082C80.166 62.082 81.9276 63.8437 81.9276 66.0096C81.9276 68.1756 80.166 69.9376 78 69.9376C75.834 69.9376 74.0724 68.1756 74.0724 66.0096ZM78 81.9062C75.2206 81.9062 72.6426 81.0285 70.5282 79.5362C70.2871 79.366 70.0528 79.1887 69.8251 79.004C70.2207 77.6326 70.9569 76.3856 71.9823 75.3602C73.5898 73.7531 75.7264 72.8673 78 72.8673C81.8193 72.8673 85.1358 75.4033 86.1749 79.004C85.9472 79.1887 85.7129 79.366 85.4718 79.5362C83.3574 81.0285 80.7794 81.9062 78 81.9062ZM78 55.9297C85.1621 55.9297 90.9883 61.7559 90.9883 68.918C90.9883 71.8156 90.0342 74.4943 88.4248 76.6572C87.2762 74.117 85.2384 72.1006 82.7375 70.963C84.0429 69.7137 84.8573 67.9551 84.8573 66.0096C84.8573 62.2285 81.7811 59.1523 78 59.1523C74.2189 59.1523 71.1427 62.2285 71.1427 66.0096C71.1427 67.954 71.956 69.7118 73.2599 70.96C72.0285 71.5196 70.8955 72.3027 69.9102 73.2881C68.9248 74.2734 68.1386 75.4121 67.5752 76.6561C65.965 74.4931 65.0117 71.8156 65.0117 68.918C65.0117 61.7559 70.8379 55.9297 78 55.9297Z" fill="#929396"/>
</g>
<circle opacity="0.1" cx="78" cy="78" r="77.5" stroke="#D4B038"/>
<circle cx="20" cy="25" r="17" fill="#D4B038"/>
<path d="M21.326 29H19.688V21.776L18.162 23.372L17.21 22.378L19.898 19.662H21.326V29Z" fill="#2A2B2F"/>
<defs>
<clipPath id="clip0_2043_59">
<rect width="50" height="50" fill="white" transform="translate(53 53)"/>
</clipPath>
</defs>
</svg>
