<svg width="42" height="50" viewBox="0 0 42 50" fill="none" xmlns="http://www.w3.org/2000/svg">
<path d="M20.3117 14.6973H21.6867C22.2593 14.6973 22.7251 15.1631 22.7251 15.7357C22.7251 16.3082 22.2593 16.774 21.6867 16.774H20.3433C19.7698 16.774 19.3033 16.3075 19.3033 15.7341H16.3736C16.3736 17.6458 17.7321 19.246 19.5345 19.6206V21.119H22.4642V19.6267C24.2813 19.2643 25.6549 17.6575 25.6549 15.7356C25.6549 13.5476 23.8748 11.7675 21.6868 11.7675H20.3118C19.7393 11.7675 19.2734 11.3017 19.2734 10.7291C19.2734 10.1566 19.7393 9.69075 20.3118 9.69075H21.7113C22.2595 9.69075 22.7054 10.1366 22.7054 10.6848H25.6351C25.6351 8.77874 24.2687 7.18655 22.4642 6.8343V5.34583H19.5345V6.83801C17.7174 7.20042 16.3438 8.80715 16.3438 10.7292C16.3437 12.9172 18.1237 14.6973 20.3117 14.6973Z" fill="#929396"/>
<path d="M21 26.4648C28.2964 26.4648 34.2324 20.5288 34.2324 13.2324C34.2324 5.93604 28.2964 0 21 0C13.7036 0 7.76758 5.93604 7.76758 13.2324C7.76758 20.5288 13.7036 26.4648 21 26.4648ZM21 2.92969C26.681 2.92969 31.3027 7.55147 31.3027 13.2324C31.3027 18.9134 26.681 23.5352 21 23.5352C15.319 23.5352 10.6973 18.9134 10.6973 13.2324C10.6973 7.55147 15.319 2.92969 21 2.92969Z" fill="#929396"/>
<path d="M37.1738 47.0703V26.4771H28.3604V47.0703H25.4062V32.3608H16.5928V47.0703H13.6387V38.2445H4.8252V47.0703H0.40625V50H41.5928V47.0703H37.1738ZM31.29 29.4067H34.2441V47.0703H31.29V29.4067ZM19.5225 35.2905H22.4766V47.0703H19.5225V35.2905ZM7.75488 41.1742H10.709V47.0703H7.75488V41.1742Z" fill="#929396"/>
</svg>
