<svg width="409" height="406" viewBox="0 0 409 406" fill="none" xmlns="http://www.w3.org/2000/svg">
<path opacity="0.29" d="M407.55 203.02C407.173 256.751 385.565 308.153 347.437 346.014C309.31 383.875 257.757 405.123 204.025 405.123C150.293 405.123 98.7404 383.875 60.6129 346.014C22.4855 308.153 0.876634 256.751 0.5 203.02C0.876634 149.289 22.4855 97.8868 60.6129 60.0257C98.7404 22.1646 150.293 0.916626 204.025 0.916626C257.757 0.916626 309.31 22.1646 347.437 60.0257C385.565 97.8868 407.173 149.289 407.55 203.02Z" stroke="#D4B038" stroke-miterlimit="10"/>
<path opacity="0.53" d="M369.27 203.02C368.931 246.623 351.372 288.325 320.419 319.038C289.467 349.75 247.63 366.984 204.025 366.984C160.421 366.984 118.584 349.75 87.6313 319.038C56.6787 288.325 39.1196 246.623 38.7804 203.02C38.6107 181.212 42.7596 159.585 50.9879 139.388C59.2162 119.191 71.3611 100.822 86.7224 85.3405C102.084 69.8592 120.357 57.5718 140.49 49.1867C160.623 40.8015 182.216 36.4845 204.025 36.4845C225.834 36.4845 247.428 40.8015 267.561 49.1867C287.693 57.5718 305.967 69.8592 321.328 85.3405C336.69 100.822 348.835 119.191 357.063 139.388C365.291 159.585 369.44 181.212 369.27 203.02Z" stroke="#D4B038" stroke-miterlimit="10"/>
<path opacity="0.76" d="M330.991 203.02C331.007 219.695 327.73 236.209 321.348 251.614C314.966 267.019 305.604 281.012 293.801 292.79C269.986 316.59 237.695 329.96 204.026 329.96C170.357 329.96 138.065 316.59 114.251 292.79C102.449 281.011 93.0882 267.017 86.7062 251.613C80.3243 236.208 77.0464 219.694 77.0606 203.02C77.0606 169.338 90.4409 137.035 114.258 113.217C138.075 89.4003 170.378 76.02 204.061 76.02C237.743 76.02 270.046 89.4003 293.863 113.217C317.68 137.035 331.061 169.338 331.061 203.02H330.991Z" stroke="#D4B038" stroke-miterlimit="10"/>
<path d="M204.02 291.7C252.997 291.7 292.7 251.997 292.7 203.02C292.7 154.043 252.997 114.34 204.02 114.34C155.043 114.34 115.34 154.043 115.34 203.02C115.34 251.997 155.043 291.7 204.02 291.7Z" stroke="#D4B038" stroke-miterlimit="10"/>
</svg>
