<svg width="156" height="156" viewBox="0 0 156 156" fill="none" xmlns="http://www.w3.org/2000/svg">
<g clip-path="url(#clip0_2043_61)">
<path d="M97.1803 63.6266L95.1047 61.551L91.7394 64.9163L90.2495 63.4264L88.1738 65.502L91.7394 69.0676L97.1803 63.6266Z" fill="#929396"/>
<path d="M91.7392 69.1367L88.1045 65.5019L90.2492 63.3571L91.7392 64.847L95.1045 61.4818L97.2491 63.6265L97.2146 63.6611L91.7392 69.1367ZM88.2427 65.5019L91.7391 68.9983L97.1108 63.6264L95.1044 61.62L91.7391 64.9853L90.2491 63.4954L88.2427 65.5019Z" fill="#929396"/>
<path d="M102.951 95.6123V64.7904C102.973 55.7171 91.8614 51.1323 85.4947 57.4518H61.8552V63.3226H53.0489V95.6123H72.1291V98.5477H69.1937V101.483H86.8063V98.5477H83.8708V95.6123H102.951ZM92.6771 57.4518C96.7236 57.4518 100.016 60.7439 100.016 64.7904C99.6468 74.5126 85.706 74.51 85.3385 64.7903C85.3385 60.7438 88.6307 57.4518 92.6771 57.4518ZM64.7906 60.3873H83.3958C82.9611 61.3001 82.6574 62.2867 82.5085 63.3227H67.726V66.2582H82.5084C82.6572 67.2942 82.9609 68.2807 83.3957 69.1936H67.726V72.1291H85.4947C87.0177 73.62 89.0011 74.642 91.2094 74.9593V86.8062H64.7906V60.3873ZM55.9843 92.6768V66.2581H61.8552V89.7414H94.1448V74.959C96.4294 74.6307 98.4732 73.5484 100.016 71.9727V92.6768C98.4833 92.6768 58.424 92.6768 55.9843 92.6768ZM80.9354 98.5477H75.0646V95.6123H80.9354V98.5477Z" fill="#929396"/>
<path d="M86.8551 101.532H69.1448V98.4988H72.0802V95.6613H53V63.2738H61.8063V57.4029H85.4746C88.4408 54.4698 92.7173 53.6657 96.6411 55.3052C100.574 56.9482 103.01 60.5827 103 64.7905V95.6613H83.9198V98.4988H86.8551V101.532ZM69.2426 101.434H86.7573V98.5965H83.8219V95.5633H102.902V64.7904C102.912 60.6228 100.499 57.0229 96.6034 55.3956C92.7109 53.7692 88.4673 54.5704 85.5292 57.4865L85.5149 57.5008H61.9041V63.3716H53.0979V95.5634H72.1781V98.5966H69.2426V101.434ZM80.9843 98.5966H75.0156V95.5634H80.9843V98.5966ZM75.1135 98.4988H80.8864V95.6613H75.1135V98.4988ZM100.065 92.7258H55.9354V66.2091H61.9041V89.6926H94.0959V74.9167L94.1378 74.9106C96.339 74.5944 98.4139 73.5389 99.9806 71.9385L100.065 71.8529V92.7258ZM56.0332 92.6279H99.9667V72.0917C98.4054 73.6497 96.3615 74.6805 94.1937 75.0013V89.7903H61.8062V66.307H56.0332V92.6279ZM91.2583 86.855H64.7417V60.3383H83.4733L83.44 60.4083C82.9998 61.3325 82.7027 62.3153 82.557 63.3296L82.551 63.3715H67.7749V66.2091H82.5508L82.5568 66.251C82.7025 67.2653 82.9995 68.2482 83.4397 69.1724L83.4731 69.2424H67.7749V72.0799H85.5146L85.5289 72.0939C87.0952 73.6271 89.0618 74.601 91.2163 74.9105L91.2582 74.9165V86.855H91.2583ZM64.8395 86.7571H91.1605V75.0014C89.0081 74.6834 87.0435 73.7078 85.4748 72.1779H67.6771V69.1447H83.3186C82.8982 68.2448 82.6116 67.2908 82.4661 66.3071H67.6771V63.2738H82.4662C82.6117 62.2901 82.8983 61.3361 83.3187 60.4363H64.8395V86.7571ZM92.6773 72.1299C92.677 72.1299 92.6769 72.1299 92.6768 72.1299C89.2525 72.1297 85.4803 69.8333 85.2896 64.7921C85.2896 60.7169 88.6037 57.4028 92.6772 57.4028C96.7506 57.4028 100.065 60.7169 100.065 64.7903C99.8732 69.8337 96.1012 72.1299 92.6773 72.1299ZM92.6771 57.5008C88.6576 57.5008 85.3874 60.7708 85.3874 64.7903C85.5755 69.765 89.2979 72.0319 92.6768 72.0321C96.0555 72.0324 99.7779 69.7657 99.9668 64.7886C99.9668 60.7708 96.6965 57.5008 92.6771 57.5008Z" fill="#929396"/>
<path d="M67.7256 75.0643H77.9996V77.9998H67.7256V75.0643Z" fill="#929396"/>
<path d="M78.0486 78.0487H67.6768V75.0154H78.0486V78.0487ZM67.7745 77.9508H77.9507V75.1133H67.7745V77.9508Z" fill="#929396"/>
<path d="M67.7256 80.9352H88.2736V83.8706H67.7256V80.9352Z" fill="#929396"/>
<path d="M88.3225 83.9195H67.6768V80.8863H88.3225V83.9195ZM67.7745 83.8217H88.2246V80.9841H67.7745V83.8217Z" fill="#929396"/>
</g>
<circle opacity="0.1" cx="78" cy="78" r="77.5" stroke="#D4B038"/>
<circle cx="20" cy="25" r="17" fill="#D4B038"/>
<path d="M19.864 29.168C18.212 29.168 16.98 28.496 16.336 27.656L17.232 26.578C17.834 27.278 18.814 27.712 19.808 27.712C21.04 27.712 21.754 27.138 21.754 26.284C21.754 25.36 21.026 24.954 19.682 24.954C19.29 24.954 18.758 24.968 18.618 24.982V23.498C18.772 23.512 19.318 23.512 19.682 23.512C20.788 23.512 21.614 23.134 21.614 22.28C21.614 21.426 20.76 20.978 19.724 20.978C18.758 20.978 17.974 21.328 17.302 22.014L16.462 20.992C17.19 20.138 18.324 19.522 19.878 19.522C21.894 19.522 23.238 20.474 23.238 22.028C23.238 23.288 22.174 24.016 21.222 24.17C22.118 24.268 23.392 24.996 23.392 26.438C23.392 28.034 22.034 29.168 19.864 29.168Z" fill="#2A2B2F"/>
<defs>
<clipPath id="clip0_2043_61">
<rect width="50" height="50" fill="white" transform="translate(53 53)"/>
</clipPath>
</defs>
</svg>
