<svg width="156" height="156" viewBox="0 0 156 156" fill="none" xmlns="http://www.w3.org/2000/svg">
<path d="M103 86.7891V54.5625H53V86.7891H70.6758V89.7188H67.7461V101.438H88.2539V89.7188H85.3242V86.7891H103ZM55.9297 57.4922H100.07V83.8594H85.1769C84.4964 80.5203 81.5371 78 78 78C74.4629 78 71.5037 80.5203 70.8231 83.8594H55.9297V57.4922ZM82.1426 83.8594H73.8574C74.4621 82.1544 76.0903 80.9297 78 80.9297C79.9097 80.9297 81.5379 82.1544 82.1426 83.8594ZM85.3242 98.5078H70.6758V92.6484H85.3242V98.5078ZM82.3945 89.7188H73.6055V86.7891H82.3945V89.7188Z" fill="#929396"/>
<path d="M76.5352 60.4219H58.957V75.0703H76.5352V60.4219ZM61.8867 72.1406V69.2109H64.8164V66.2812H61.8867V63.3516H73.6055V66.2812H70.6758V69.2109H73.6055V72.1406H61.8867Z" fill="#929396"/>
<path d="M82.3945 60.4219H88.2539V63.3516H82.3945V60.4219Z" fill="#929396"/>
<path d="M91.1836 60.4219H97.043V63.3516H91.1836V60.4219Z" fill="#929396"/>
<path d="M82.3945 66.2812H97.043V69.2109H82.3945V66.2812Z" fill="#929396"/>
<circle opacity="0.1" cx="78" cy="78" r="77.5" stroke="#D4B038"/>
<circle cx="20" cy="25" r="17" fill="#D4B038"/>
<path d="M21.482 29H19.844V26.886H15.392V25.57L19.228 19.662H21.482V25.444H22.728V26.886H21.482V29ZM19.844 25.444V21.132L17.002 25.444H19.844Z" fill="#2A2B2F"/>
</svg>
