<svg width="338" height="409" viewBox="0 0 338 409" fill="none" xmlns="http://www.w3.org/2000/svg">
<g opacity="0.1" clip-path="url(#clip0_1_56)">
<path opacity="0.29" d="M336.55 204.02C336.173 257.751 314.565 309.153 276.437 347.014C238.31 384.875 186.757 406.123 133.025 406.123C79.2926 406.123 27.7403 384.875 -10.3871 347.014C-48.5146 309.153 -70.1234 257.751 -70.5001 204.02C-70.1234 150.289 -48.5146 98.8868 -10.3871 61.0257C27.7403 23.1646 79.2926 1.91663 133.025 1.91663C186.757 1.91663 238.31 23.1646 276.437 61.0257C314.565 98.8868 336.173 150.289 336.55 204.02Z" stroke="#D4B038" stroke-miterlimit="10"/>
<path opacity="0.53" d="M298.27 204.02C297.931 247.623 280.372 289.325 249.419 320.038C218.467 350.75 176.63 367.984 133.025 367.984C89.421 367.984 47.5839 350.75 16.6313 320.038C-14.3213 289.325 -31.8805 247.623 -32.2197 204.02C-32.3893 182.212 -28.2404 160.585 -20.0122 140.388C-11.7839 120.191 0.361077 101.822 15.7223 86.3405C31.0836 70.8592 49.3573 58.5718 69.49 50.1867C89.6228 41.8015 111.216 37.4845 133.025 37.4845C154.834 37.4845 176.428 41.8015 196.561 50.1867C216.693 58.5718 234.967 70.8592 250.328 86.3405C265.69 101.822 277.835 120.191 286.063 140.388C294.291 160.585 298.44 182.212 298.27 204.02Z" stroke="#D4B038" stroke-miterlimit="10"/>
<path opacity="0.76" d="M259.99 204.02C260.007 220.695 256.73 237.209 250.348 252.614C243.966 268.019 234.604 282.012 222.801 293.79C198.986 317.59 166.694 330.96 133.025 330.96C99.3565 330.96 67.0653 317.59 43.2505 293.79C31.4485 282.011 22.0881 268.017 15.7062 252.613C9.32423 237.208 6.04639 220.694 6.06053 204.02C6.06053 170.338 19.4408 138.035 43.2579 114.217C67.075 90.4003 99.378 77.02 133.061 77.02C166.743 77.02 199.046 90.4003 222.863 114.217C246.68 138.035 260.061 170.338 260.061 204.02H259.99Z" stroke="#D4B038" stroke-miterlimit="10"/>
<path d="M133.02 292.7C181.997 292.7 221.7 252.997 221.7 204.02C221.7 155.043 181.997 115.34 133.02 115.34C84.0434 115.34 44.34 155.043 44.34 204.02C44.34 252.997 84.0434 292.7 133.02 292.7Z" stroke="#D4B038" stroke-miterlimit="10"/>
</g>
<defs>
<clipPath id="clip0_1_56">
<rect width="408.04" height="408.04" fill="white" transform="translate(-71)"/>
</clipPath>
</defs>
</svg>
