<svg width="121" height="26" viewBox="0 0 121 26" fill="none" xmlns="http://www.w3.org/2000/svg">
<g clip-path="url(#clip0_1_465)">
<path d="M9.4954 12.2148C7.84291 12.2148 6.19042 12.2148 4.54649 12.2148C3.98139 12.2148 3.85297 12.3779 3.86153 12.9099C3.86153 15.0037 3.86153 17.0889 3.86153 19.1741C3.86153 19.6547 3.70742 19.7919 3.25362 19.7748C2.3546 19.7748 1.44701 19.7748 0.547988 19.7748C0.15413 19.7748 -0.017107 19.6804 -0.00854487 19.2428C-0.00854487 17.0203 -0.00854487 14.7977 -0.00854487 12.5838C0.00157982 12.3303 0.0982879 12.0879 0.265423 11.8973C1.32713 10.799 2.40597 9.72636 3.49336 8.6623C3.66785 8.5034 3.89155 8.40943 4.12695 8.39624H14.5984C15.0094 8.39624 15.1122 8.55075 15.1036 8.92832C15.1036 9.84649 15.1036 10.7732 15.1036 11.6914C15.1036 12.1376 14.9752 12.2749 14.5299 12.2749C12.8175 12.2749 11.1479 12.2749 9.46117 12.2749L9.4954 12.2148Z" fill="#D4B038"/>
<path d="M7.56889 4.68922C5.24855 4.68922 2.91966 4.68922 0.599327 4.68922C0.119848 4.68922 -0.00859436 4.53473 -3.22292e-05 4.07135C-3.22292e-05 3.15318 -3.22292e-05 2.23502 -3.22292e-05 1.30827C-3.22292e-05 0.95644 0.102711 0.810547 0.479445 0.810547H14.6498C15.0265 0.810547 15.1378 0.95644 15.1293 1.30827C15.1293 2.21786 15.1293 3.11885 15.1293 4.01987C15.1293 4.52615 15.0094 4.6978 14.47 4.68922C12.1668 4.68922 9.86355 4.68922 7.55177 4.68922" fill="#D4B038"/>
<path d="M25.6607 19.5258V17.8096H25.6093C25.2206 18.4637 24.6652 19.0024 24.0001 19.3704C23.3351 19.7383 22.5843 19.9223 21.8249 19.9034C18.4 19.9034 17.2612 17.2776 17.2612 14.7547V6.92017H21.4224V13.785C21.4224 15.2009 21.7735 16.4709 23.289 16.4709C24.8045 16.4709 25.5151 15.2009 25.5151 13.7593V6.92017H29.6506V19.5172L25.6607 19.5258Z" fill="#D4B038"/>
<path d="M35.8497 0.407227H31.6628V19.5259H35.8497V0.407227Z" fill="#D4B038"/>
<path d="M42.1086 0.407227H37.9217V19.5259H42.1086V0.407227Z" fill="#D4B038"/>
<path d="M50.9275 11.9402H48.5301V16.0334H50.9447C52.3146 16.0334 53.9757 15.6559 53.9757 13.9139C53.9757 12.4208 52.7684 11.9402 50.9275 11.9402ZM50.645 5.07533H48.5301V8.77378H50.8505C52.4602 8.77378 53.4191 8.08733 53.4191 6.8259C53.4191 5.56448 52.4858 5.10968 50.6707 5.10968M51.5269 19.5774H44.4117V1.67725H51.5269C54.3096 1.67725 57.6146 2.66406 57.6146 6.2767C57.6268 7.15661 57.3452 8.01535 56.8147 8.71653C56.2841 9.41771 55.535 9.92113 54.6863 10.1468V10.1983C55.7032 10.3152 56.6405 10.8067 57.3161 11.5774C57.9918 12.3481 58.3575 13.3429 58.3423 14.3687C58.3423 18.2645 54.9175 19.5774 51.4926 19.5774" fill="#D4B038"/>
<path d="M67.9319 19.5258V17.8096H67.8805C67.4918 18.4637 66.9364 19.0024 66.2713 19.3704C65.6063 19.7383 64.8555 19.9223 64.096 19.9034C60.6712 19.9034 59.5325 17.2776 59.5325 14.7547V6.92017H63.6937V13.785C63.6937 15.2009 64.0447 16.4709 65.5602 16.4709C67.0757 16.4709 67.7778 15.2009 67.7778 13.7593V6.92017H71.9218V19.5172L67.9319 19.5258Z" fill="#D4B038"/>
<path d="M80.9806 21.4222C79.9703 24.0566 78.6089 25.5926 75.4495 25.5926C74.6852 25.5879 73.924 25.4958 73.1805 25.318L73.6343 21.8255C74.0666 21.9649 74.5162 22.0429 74.97 22.0572C76.2629 22.0572 76.6825 21.448 77.0934 20.341L77.4958 19.3113L72.2473 6.92017H76.8537L79.6535 15.0207H79.7305L82.2222 6.92017H86.6145L80.9806 21.4222Z" fill="#D4B038"/>
<path d="M88.2242 19.7919C87.5594 19.8058 86.9162 19.5555 86.4349 19.0957C85.9537 18.6358 85.6735 18.0039 85.6555 17.3377C85.6734 16.667 85.9518 16.0296 86.4316 15.5616C86.9114 15.0936 87.5546 14.8318 88.2242 14.832C88.5557 14.8241 88.8856 14.8821 89.1947 15.0027C89.5037 15.1233 89.7859 15.3042 90.0248 15.5348C90.2637 15.7655 90.4545 16.0413 90.5864 16.3463C90.7182 16.6514 90.7884 16.9796 90.7928 17.312C90.7884 17.6444 90.7182 17.9726 90.5864 18.2777C90.4545 18.5827 90.2637 18.8585 90.0248 19.0891C89.7859 19.3197 89.5037 19.5006 89.1947 19.6212C88.8856 19.7419 88.5557 19.7999 88.2242 19.7919Z" fill="#D4B038"/>
<path d="M98.67 9.96653C98.2619 9.96277 97.8574 10.0443 97.4825 10.206C97.1076 10.3676 96.7704 10.6058 96.4925 10.9054C96.2145 11.2049 96.0019 11.5593 95.8682 11.9458C95.7346 12.3323 95.6828 12.7424 95.7161 13.1501C95.6881 13.5583 95.7435 13.968 95.8787 14.3541C96.0139 14.7401 96.2262 15.0945 96.5027 15.3957C96.7791 15.6968 97.1138 15.9383 97.4864 16.1055C97.8591 16.2727 98.2618 16.362 98.67 16.368C99.0854 16.3711 99.4971 16.2887 99.8795 16.126C100.262 15.9634 100.607 15.7238 100.893 15.4223C101.18 15.1207 101.402 14.7635 101.545 14.3727C101.688 13.9819 101.75 13.5658 101.727 13.1501C101.747 12.7369 101.682 12.324 101.537 11.9367C101.392 11.5494 101.169 11.1959 100.883 10.8978C100.597 10.5997 100.253 10.3634 99.8725 10.2033C99.492 10.0431 99.0827 9.96254 98.67 9.96653ZM98.259 25.5927C95.9566 25.6006 93.7048 24.916 91.7946 23.6276L93.8667 20.6672C95.0192 21.6788 96.4958 22.2421 98.0278 22.2547C100.451 22.2547 101.59 20.8388 101.59 18.745V17.9813H101.513C101.052 18.5413 100.468 18.9874 99.8074 19.2851C99.1467 19.5827 98.4264 19.7238 97.7025 19.6975C93.8923 19.6975 91.709 16.7113 91.709 13.2188C91.709 9.72629 93.9009 6.61993 97.7025 6.61993C98.4824 6.59105 99.2573 6.75618 99.958 7.10057C100.659 7.44496 101.263 7.95789 101.718 8.59357H101.769V6.92025H105.674V18.3331C105.674 23.2586 102.746 25.5841 98.2847 25.5841" fill="#D4B038"/>
<path d="M114.013 9.96637C113.605 9.96262 113.201 10.0442 112.826 10.2058C112.451 10.3675 112.114 10.6057 111.836 10.9052C111.558 11.2048 111.345 11.5591 111.212 11.9456C111.078 12.3321 111.026 12.7423 111.059 13.15C111.033 13.5575 111.089 13.9662 111.225 14.3512C111.36 14.7363 111.573 15.0897 111.849 15.3899C112.126 15.6901 112.46 15.9308 112.832 16.0975C113.204 16.2641 113.606 16.3532 114.013 16.3593C114.429 16.3623 114.84 16.2799 115.223 16.1173C115.605 15.9546 115.95 15.7151 116.237 15.4135C116.523 15.112 116.745 14.7548 116.888 14.364C117.032 13.9732 117.093 13.5571 117.07 13.1414C117.09 12.7282 117.025 12.3153 116.88 11.928C116.735 11.5407 116.513 11.1871 116.227 10.8891C115.94 10.591 115.596 10.3547 115.216 10.1945C114.835 10.0344 114.426 9.9538 114.013 9.95778M113.611 25.584C111.308 25.5918 109.057 24.9073 107.147 23.6189L109.219 20.6498C110.371 21.6614 111.848 22.2247 113.38 22.2373C115.803 22.2373 116.942 20.8215 116.942 18.7277V17.964H116.865C116.404 18.524 115.82 18.9701 115.159 19.2677C114.499 19.5653 113.778 19.7065 113.054 19.6802C109.244 19.6802 107.061 16.694 107.061 13.2015C107.061 9.70895 109.253 6.60259 113.054 6.60259C113.834 6.57372 114.609 6.73885 115.31 7.08324C116.011 7.42763 116.615 7.94056 117.07 8.57624H117.096V6.92009H121V18.3329C121 23.2585 118.072 25.584 113.611 25.584Z" fill="#D4B038"/>
</g>
<defs>
<clipPath id="clip0_1_465">
<rect width="121" height="25.1855" fill="white" transform="translate(0 0.407227)"/>
</clipPath>
</defs>
</svg>
